<svg width="132" height="37" viewBox="0 0 132 37" fill="none" xmlns="http://www.w3.org/2000/svg">
<path d="M0.45 36V0.999998H14.8C17.2333 0.999998 19.2833 1.38333 20.95 2.15C22.6167 2.91666 23.8667 3.98333 24.7 5.35C25.5667 6.68333 26 8.23333 26 10C26 11.7667 25.6167 13.25 24.85 14.45C24.0833 15.65 23.0667 16.5833 21.8 17.25C20.5667 17.8833 19.2 18.25 17.7 18.35L18.5 17.8C20.1 17.8667 21.5167 18.3 22.75 19.1C24.0167 19.8667 25 20.9 25.7 22.2C26.4333 23.5 26.8 24.9167 26.8 26.45C26.8 28.3167 26.35 29.9667 25.45 31.4C24.55 32.8333 23.25 33.9667 21.55 34.8C19.85 35.6 17.7667 36 15.3 36H0.45ZM7.2 30.5H14.2C16.0333 30.5 17.45 30.0833 18.45 29.25C19.45 28.4167 19.95 27.2167 19.95 25.65C19.95 24.0833 19.4333 22.8667 18.4 22C17.3667 21.1 15.9333 20.65 14.1 20.65H7.2V30.5ZM7.2 15.6H13.7C15.4667 15.6 16.8 15.2 17.7 14.4C18.6333 13.6 19.1 12.4667 19.1 11C19.1 9.56667 18.6333 8.45 17.7 7.65C16.8 6.81667 15.45 6.4 13.65 6.4H7.2V15.6ZM44.0848 36.6C41.6848 36.6 39.5181 36.05 37.5848 34.95C35.6848 33.8167 34.1681 32.2667 33.0348 30.3C31.9348 28.3 31.3848 26.0167 31.3848 23.45C31.3848 20.8167 31.9348 18.5167 33.0348 16.55C34.1681 14.55 35.7014 13 37.6348 11.9C39.5681 10.7667 41.7348 10.2 44.1348 10.2C46.5681 10.2 48.7348 10.7667 50.6348 11.9C52.5681 13 54.0848 14.55 55.1848 16.55C56.3181 18.5167 56.8848 20.8 56.8848 23.4C56.8848 26 56.3181 28.3 55.1848 30.3C54.0848 32.2667 52.5681 33.8167 50.6348 34.95C48.7014 36.05 46.5181 36.6 44.0848 36.6ZM44.0848 30.75C45.2181 30.75 46.2181 30.4833 47.0848 29.95C47.9848 29.4167 48.6848 28.6 49.1848 27.5C49.7181 26.4 49.9848 25.0333 49.9848 23.4C49.9848 21.7667 49.7181 20.4167 49.1848 19.35C48.6848 18.25 47.9848 17.4333 47.0848 16.9C46.2181 16.3333 45.2348 16.05 44.1348 16.05C43.0681 16.05 42.0848 16.3333 41.1848 16.9C40.2848 17.4333 39.5681 18.25 39.0348 19.35C38.5348 20.4167 38.2848 21.7667 38.2848 23.4C38.2848 25.0333 38.5348 26.4 39.0348 27.5C39.5681 28.6 40.2681 29.4167 41.1348 29.95C42.0348 30.4833 43.0181 30.75 44.0848 30.75ZM62.7023 36V-1.43051e-06H69.4523V14.55C70.2857 13.2167 71.3857 12.1667 72.7523 11.4C74.1523 10.6 75.769 10.2 77.6023 10.2C79.7023 10.2 81.469 10.65 82.9023 11.55C84.3357 12.4167 85.419 13.6833 86.1523 15.35C86.8857 17.0167 87.2523 19.0833 87.2523 21.55V36H80.5523V22.15C80.5523 20.15 80.1357 18.6167 79.3023 17.55C78.469 16.45 77.1523 15.9 75.3523 15.9C74.2523 15.9 73.2523 16.1667 72.3523 16.7C71.4523 17.2333 70.7357 18.0167 70.2023 19.05C69.7023 20.05 69.4523 21.25 69.4523 22.65V36H62.7023ZM103.011 36.6C100.977 36.6 99.2272 36.1833 97.7605 35.35C96.3272 34.4833 95.2272 33.2333 94.4605 31.6C93.6939 29.9333 93.3105 27.8833 93.3105 25.45V10.8H100.061V24.75C100.061 26.7833 100.477 28.3167 101.311 29.35C102.177 30.3833 103.494 30.9 105.261 30.9C106.394 30.9 107.394 30.65 108.261 30.15C109.127 29.6167 109.811 28.8667 110.311 27.9C110.844 26.9 111.111 25.6833 111.111 24.25V10.8H117.811V36H111.911L111.361 31.9C110.627 33.3333 109.544 34.4833 108.111 35.35C106.677 36.1833 104.977 36.6 103.011 36.6ZM127.471 36.25C126.204 36.25 125.188 35.8833 124.421 35.15C123.654 34.3833 123.271 33.45 123.271 32.35C123.271 31.25 123.654 30.3333 124.421 29.6C125.188 28.8333 126.204 28.45 127.471 28.45C128.671 28.45 129.654 28.8333 130.421 29.6C131.188 30.3333 131.571 31.25 131.571 32.35C131.571 33.45 131.188 34.3833 130.421 35.15C129.654 35.8833 128.671 36.25 127.471 36.25Z" fill="white"/>
</svg>
